PathFileType	4	(X/Y/Z)	/Users/itak/Documents/Research/Walk-IL/dataset/trc/00323_00011.trc
DataRate	CameraRate	NumFrames	NumMarkers	Units	OrigDataRate	OrigDataStartFrame	OrigNumFrames
100.000000	100.000000	4	53	mm	100.000000	0	483
Frame#	Time	RPSI			LPSI			L3			STRN			T10			C7			CLAV			RBAK			LBAK			LSHO			LUPA			LAEL			LAOL			LWTS			LWPS			LFRA			LHPS			LHTS			RSHO			RUPA			RAEL			RAOL			RWTS			RWPS			RFRA			RIFD			RHTS			RHPS			RBHD			LFHD			RFHD			LBHD			LHIP			RHIP			RASI			LASI			LKNE			LTHI			LANK			LTIP			LTOE			LMT1			LMT5			LHEE			RKNE			RANK			RTIP			RTOE			RMT1			RMT5			RHEE			LIFD			RTHI			
		X1	Y1	Z1	X2	Y2	Z2	X3	Y3	Z3	X4	Y4	Z4	X5	Y5	Z5	X6	Y6	Z6	X7	Y7	Z7	X8	Y8	Z8	X9	Y9	Z9	X10	Y10	Z10	X11	Y11	Z11	X12	Y12	Z12	X13	Y13	Z13	X14	Y14	Z14	X15	Y15	Z15	X16	Y16	Z16	X17	Y17	Z17	X18	Y18	Z18	X19	Y19	Z19	X20	Y20	Z20	X21	Y21	Z21	X22	Y22	Z22	X23	Y23	Z23	X24	Y24	Z24	X25	Y25	Z25	X26	Y26	Z26	X27	Y27	Z27	X28	Y28	Z28	X29	Y29	Z29	X30	Y30	Z30	X31	Y31	Z31	X32	Y32	Z32	X33	Y33	Z33	X34	Y34	Z34	X35	Y35	Z35	X36	Y36	Z36	X37	Y37	Z37	X38	Y38	Z38	X39	Y39	Z39	X40	Y40	Z40	X41	Y41	Z41	X42	Y42	Z42	X43	Y43	Z43	X44	Y44	Z44	X45	Y45	Z45	X46	Y46	Z46	X47	Y47	Z47	X48	Y48	Z48	X49	Y49	Z49	X50	Y50	Z50	X51	Y51	Z51	X52	Y52	Z52	X53	Y53	Z53	

1	0	-1504.192260742188	980.7200317382812	54.86074066162109	-1499.2978515625	981.7215576171875	-72.62903594970703	-1506.967041015625	1032.953002929688	-3.273381948471069	-1288.912109375	1237.7548828125	-9.725893020629883	-1525.517578125	1153.338745117188	-11.25527667999268	-1501.96435546875	1404.407104492188	-26.27861785888672	-1342.621337890625	1358.880615234375	-15.27766990661621	-1539.34228515625	1261.84814453125	38.51025009155273	-1506.779418945312	1367.025024414062	-128.1273498535156	-1420.655395507812	1390.402709960938	-181.2707061767578	-1427.771118164062	1270.008178710938	-250.3444976806641	-1394.4892578125	1067.08837890625	-261.1045532226562	-1458.26708984375	1049.360473632812	-208.2933959960938	-1284.7734375	829.3525390625	-211.9894409179688	-1321.131591796875	817.2284545898438	-269.9292907714844	-1372.1103515625	964.04736328125	-267.4275207519531	-1319.483642578125	746.7074584960938	-265.4140319824219	-1268.171020507812	751.9815063476562	-228.56494140625	-1450.391235351562	1395.054077148438	138.8365020751953	-1459.202270507812	1329.5732421875	202.0047607421875	-1432.139770507812	1060.969848632812	233.1883544921875	-1472.341186523438	1053.527954101562	147.6774139404297	-1307.610961914062	841.70654296875	178.8627166748047	-1342.654296875	821.8988647460938	245.0831298828125	-1401.9384765625	995.474609375	239.7929534912109	-1283.043090820312	668.8727416992188	184.5046234130859	-1282.201049804688	738.8318481445312	194.4627838134766	-1322.33349609375	739.585205078125	239.0326232910156	-1452.776245117188	1619.735717773438	61.1357421875	-1284.500610351562	1620.720825195312	-62.55886459350586	-1291.354858398438	1621.619262695312	37.70692443847656	-1470.14990234375	1615.082763671875	-83.05215454101562	-1409.248046875	926.16748046875	-173.6616058349609	-1429.310424804688	931.824462890625	168.7711181640625	-1324.272583007812	965.3692626953125	129.2979888916016	-1292.322631835938	961.0645751953125	-110.6385345458984	-1363.954467773438	470.9866027832031	-152.3790588378906	-1362.055541992188	609.9005126953125	-161.7049713134766	-1445.40771484375	47.39729309082031	-130.2563781738281	-1407.316040039062	252.5002593994141	-153.0631561279297	-1241.942016601562	48.89455032348633	-59.80979537963867	-1314.073120117188	39.70216369628906	-22.93199729919434	-1316.92529296875	44.24383544921875	-137.1687622070312	-1481.317626953125	46.25267028808594	-63.52251052856445	-1390.265747070312	468.4671325683594	152.684326171875	-1442.3408203125	51.07392501831055	127.9932098388672	-1383.159057617188	347.6990051269531	144.0045318603516	-1249.964111328125	48.87827682495117	77.35812377929688	-1303.974365234375	45.5144157409668	34.93108367919922	-1339.839477539062	40.23210525512695	146.83056640625	-1492.7509765625	50.91188049316406	80.66277313232422	-1275.133056640625	668.2755126953125	-209.4748687744141	-1353.73046875	727.7686157226562	177.7654266357422	
2	0.01	-1504.536499023438	980.7452392578125	55.1671257019043	-1499.749267578125	981.7692260742188	-72.37379455566406	-1507.34130859375	1032.959228515625	-2.974613428115845	-1289.187133789062	1237.857421875	-9.517084121704102	-1525.770141601562	1153.433715820312	-11.08632183074951	-1502.383544921875	1404.519653320312	-25.95149612426758	-1342.953002929688	1358.901611328125	-14.98605251312256	-1539.687133789062	1261.9013671875	38.81549072265625	-1507.178588867188	1367.135009765625	-127.7695770263672	-1421.055541992188	1390.51611328125	-180.9470367431641	-1428.265014648438	1270.109375	-250.0507354736328	-1395.00390625	1067.179077148438	-260.6934814453125	-1458.76513671875	1049.487426757812	-207.8527984619141	-1285.385498046875	829.411376953125	-211.4361877441406	-1321.736938476562	817.3079223632812	-269.3429870605469	-1372.6064453125	964.1184692382812	-266.9255981445312	-1320.025146484375	746.7575073242188	-264.7510070800781	-1268.712280273438	752.0281982421875	-227.9236297607422	-1450.666015625	1395.01318359375	139.1601409912109	-1459.46826171875	1329.591064453125	202.3286437988281	-1432.491455078125	1060.911865234375	233.4588775634766	-1472.676147460938	1053.591430664062	147.7295379638672	-1308.060913085938	841.559814453125	179.0636596679688	-1343.27294921875	821.7528076171875	245.2864227294922	-1402.429931640625	995.4036254882812	240.0057067871094	-1283.578857421875	668.8807983398438	184.6275634765625	-1282.802856445312	738.9125366210938	194.6424102783203	-1322.792724609375	739.4861450195312	239.1729736328125	-1453.019165039062	1619.777954101562	61.42508316040039	-1284.836181640625	1620.754272460938	-62.20203018188477	-1291.680419921875	1621.696899414062	38.06103897094727	-1470.466064453125	1615.115600585938	-82.65057373046875	-1409.683959960938	926.2158813476562	-173.4168395996094	-1429.637817382812	931.765380859375	169.0124816894531	-1324.570434570312	965.3222045898438	129.4638977050781	-1292.769409179688	961.083251953125	-110.5178680419922	-1363.996948242188	470.9265441894531	-152.2726898193359	-1362.33056640625	609.9124755859375	-161.5372924804688	-1445.419921875	47.43870544433594	-130.2250823974609	-1407.164306640625	252.4532623291016	-152.9164428710938	-1241.855834960938	48.89139938354492	-59.81113815307617	-1313.927978515625	39.58000946044922	-23.20953559875488	-1316.927856445312	44.30674362182617	-137.1176452636719	-1481.326782226562	46.24969482421875	-63.50519180297852	-1390.208251953125	468.4499206542969	152.7398681640625	-1442.374755859375	51.03637313842773	127.9984664916992	-1383.109741210938	347.6294555664062	144.0510711669922	-1249.945434570312	49.00142669677734	77.43559265136719	-1303.995239257812	45.62565612792969	35.02898788452148	-1339.852661132812	40.24717330932617	146.8373107910156	-1492.8154296875	50.88452529907227	80.71210479736328	-1277.02734375	667.389892578125	-208.5507202148438	-1354.115478515625	727.9574584960938	178.1899261474609	
3	0.02	-1504.903686523438	980.7626342773438	55.45487594604492	-1500.228881835938	981.8106689453125	-72.10875701904297	-1507.7294921875	1032.95849609375	-2.68000340461731	-1289.396850585938	1237.967163085938	-9.329436302185059	-1526.0478515625	1153.529541015625	-10.88983154296875	-1502.79345703125	1404.632202148438	-25.61674690246582	-1343.281616210938	1358.920532226562	-14.69129085540771	-1540.034057617188	1261.958251953125	39.1501579284668	-1507.589233398438	1367.237670898438	-127.3926544189453	-1421.51904296875	1390.621337890625	-180.6363983154297	-1428.794189453125	1270.202880859375	-249.7422180175781	-1395.575439453125	1067.250610351562	-260.2514953613281	-1459.329223632812	1049.604248046875	-207.3781585693359	-1286.008056640625	829.4957275390625	-210.8550415039062	-1322.361938476562	817.3630981445312	-268.6835021972656	-1373.139892578125	964.16357421875	-266.3704833984375	-1320.629150390625	746.8023681640625	-264.0158386230469	-1269.311767578125	752.1012573242188	-227.1740264892578	-1450.966430664062	1394.9755859375	139.5040588378906	-1459.71142578125	1329.603881835938	202.6552734375	-1432.841430664062	1060.851928710938	233.7434234619141	-1473.001708984375	1053.6494140625	147.8052368164062	-1308.513305664062	841.4090576171875	179.2694091796875	-1343.896240234375	821.61279296875	245.4829406738281	-1402.906372070312	995.3208618164062	240.2094879150391	-1284.1064453125	668.896484375	184.7232666015625	-1283.4052734375	738.9889526367188	194.8591461181641	-1323.3232421875	739.3526611328125	239.3163452148438	-1453.244873046875	1619.772094726562	61.659423828125	-1285.1884765625	1620.807373046875	-61.81769943237305	-1291.989135742188	1621.78076171875	38.41035842895508	-1470.785766601562	1615.147827148438	-82.20459747314453	-1410.137817382812	926.2637329101562	-173.1783599853516	-1429.921142578125	931.6689453125	169.2150573730469	-1324.908813476562	965.2555541992188	129.6297912597656	-1293.270385742188	961.1033935546875	-110.3795471191406	-1364.0224609375	470.8562927246094	-152.1603546142578	-1362.578979492188	609.9148559570312	-161.3429412841797	-1445.436889648438	47.48797607421875	-130.1918487548828	-1406.995849609375	252.4024353027344	-152.7584991455078	-1241.768188476562	48.88654708862305	-59.80292510986328	-1313.824584960938	39.49664688110352	-23.40067863464355	-1316.933715820312	44.38006591796875	-137.0608062744141	-1481.336791992188	46.23879241943359	-63.48321914672852	-1390.153930664062	468.4166259765625	152.7719268798828	-1442.41064453125	50.9990348815918	128.0016479492188	-1383.073974609375	347.5625305175781	144.0971374511719	-1249.934204101562	49.11739349365234	77.51762390136719	-1304.016723632812	45.73064804077148	35.12462997436523	-1339.866455078125	40.25896453857422	146.8422698974609	-1492.879028320312	50.85966110229492	80.75540161132812	-1278.475341796875	666.902587890625	-207.5602416992188	-1354.502319335938	728.1346435546875	178.6110534667969	
4	0.03	-1505.2919921875	980.770263671875	55.72450256347656	-1500.724365234375	981.8411865234375	-71.84872436523438	-1508.13916015625	1032.955688476562	-2.390984058380127	-1289.556518554688	1238.07470703125	-9.162408828735352	-1526.339599609375	1153.624267578125	-10.66103839874268	-1503.191162109375	1404.7412109375	-25.27218246459961	-1343.605224609375	1358.9384765625	-14.39739894866943	-1540.367065429688	1262.013671875	39.50563812255859	-1508.004760742188	1367.331909179688	-127.0020523071289	-1422.031005859375	1390.717529296875	-180.3413543701172	-1429.353759765625	1270.284545898438	-249.4256896972656	-1396.195678710938	1067.299682617188	-259.7837524414062	-1459.955078125	1049.708251953125	-206.8777923583984	-1286.63232421875	829.6052856445312	-210.2468872070312	-1323.0029296875	817.392822265625	-267.9538269042969	-1373.704467773438	964.1807250976562	-265.7688903808594	-1321.27734375	746.8370361328125	-263.2113952636719	-1269.951782226562	752.1934814453125	-226.3325958251953	-1451.276000976562	1394.946044921875	139.8597106933594	-1459.929809570312	1329.610717773438	202.9712371826172	-1433.17626953125	1060.788696289062	234.0250549316406	-1473.322021484375	1053.703735351562	147.9189605712891	-1308.95751953125	841.2611083984375	179.4749603271484	-1344.498291015625	821.4857177734375	245.66845703125	-1403.351928710938	995.2278442382812	240.3982543945312	-1284.600463867188	668.9168090820312	184.7842864990234	-1283.975708007812	739.0578002929688	195.1050415039062	-1323.922485351562	739.1788330078125	239.4523468017578	-1453.469848632812	1619.722900390625	61.8691520690918	-1285.551391601562	1620.883422851562	-61.41206359863281	-1292.280639648438	1621.867309570312	38.75595092773438	-1471.109130859375	1615.178344726562	-81.7265625	-1410.592041015625	926.3074951171875	-172.9451141357422	-1430.168212890625	931.5552368164062	169.3925018310547	-1325.283813476562	965.1679077148438	129.7890319824219	-1293.822631835938	961.1212158203125	-110.2212448120117	-1364.030883789062	470.7798461914062	-152.0408020019531	-1362.79296875	609.908203125	-161.1261749267578	-1445.457763671875	47.5449104309082	-130.1576843261719	-1406.820190429688	252.3511962890625	-152.5943908691406	-1241.681640625	48.87972259521484	-59.78544235229492	-1313.758178710938	39.44557571411133	-23.5145092010498	-1316.94384765625	44.46254730224609	-136.9991302490234	-1481.34765625	46.21817779541016	-63.4544792175293	-1390.11083984375	468.3709411621094	152.7922058105469	-1442.4462890625	50.96254730224609	128.0027465820312	-1383.053344726562	347.5005798339844	144.1432647705078	-1249.931396484375	49.22471237182617	77.60227966308594	-1304.03857421875	45.82786178588867	35.21691513061523	-1339.880249023438	40.26723480224609	146.8466339111328	-1492.940795898438	50.83983993530273	80.79320526123047	-1279.54150390625	666.7393188476562	-206.5267944335938	-1354.864868164062	728.279541015625	178.9945526123047	
